<mxfile host="app.diagrams.net" agent="Mozilla/5.0 (Windows NT 10.0; Win64; x64) AppleWebKit/537.36 (KHTML, like Gecko) Chrome/141.0.0.0 Safari/537.36" version="28.2.8">
  <diagram name="Page-1" id="RO1ZW2c3bsgw0JDLHCVG">
    <mxGraphModel dx="695" dy="383" grid="1" gridSize="10" guides="1" tooltips="1" connect="1" arrows="1" fold="1" page="1" pageScale="1" pageWidth="1169" pageHeight="1654" math="1" shadow="0">
      <root>
        <mxCell id="0" />
        <mxCell id="1" parent="0" />
        <mxCell id="01qJtoSz058EetLQ0UW7-1" value="" style="endArrow=classic;html=1;rounded=0;" edge="1" parent="1">
          <mxGeometry width="50" height="50" relative="1" as="geometry">
            <mxPoint x="270" y="400" as="sourcePoint" />
            <mxPoint x="270" y="240" as="targetPoint" />
          </mxGeometry>
        </mxCell>
        <mxCell id="01qJtoSz058EetLQ0UW7-2" value="" style="endArrow=classic;html=1;rounded=0;" edge="1" parent="1">
          <mxGeometry width="50" height="50" relative="1" as="geometry">
            <mxPoint x="270" y="400" as="sourcePoint" />
            <mxPoint x="640" y="400" as="targetPoint" />
          </mxGeometry>
        </mxCell>
        <mxCell id="01qJtoSz058EetLQ0UW7-3" value="" style="endArrow=none;html=1;rounded=0;" edge="1" parent="1">
          <mxGeometry width="50" height="50" relative="1" as="geometry">
            <mxPoint x="360" y="400" as="sourcePoint" />
            <mxPoint x="520" y="320" as="targetPoint" />
          </mxGeometry>
        </mxCell>
        <mxCell id="01qJtoSz058EetLQ0UW7-4" value="" style="endArrow=none;dashed=1;html=1;dashPattern=1 3;strokeWidth=2;rounded=0;" edge="1" parent="1">
          <mxGeometry width="50" height="50" relative="1" as="geometry">
            <mxPoint x="520" y="320" as="sourcePoint" />
            <mxPoint x="520" y="400" as="targetPoint" />
          </mxGeometry>
        </mxCell>
        <mxCell id="01qJtoSz058EetLQ0UW7-5" value="" style="verticalLabelPosition=bottom;verticalAlign=top;html=1;shape=mxgraph.basic.arc;startAngle=0.0614151342881991;endAngle=0.25159149638245415;" vertex="1" parent="1">
          <mxGeometry x="403" y="314" width="170" height="171" as="geometry" />
        </mxCell>
        <mxCell id="01qJtoSz058EetLQ0UW7-6" value="" style="verticalLabelPosition=bottom;verticalAlign=top;html=1;shape=mxgraph.basic.arc;startAngle=0.17892079682967657;endAngle=0.25159149638245415;" vertex="1" parent="1">
          <mxGeometry x="310" y="349.5" width="100" height="100" as="geometry" />
        </mxCell>
        <mxCell id="01qJtoSz058EetLQ0UW7-7" value="$$f(r)$$" style="text;html=1;whiteSpace=wrap;strokeColor=none;fillColor=none;align=center;verticalAlign=middle;rounded=0;" vertex="1" parent="1">
          <mxGeometry x="260" y="250" width="60" height="30" as="geometry" />
        </mxCell>
        <mxCell id="01qJtoSz058EetLQ0UW7-8" value="$$r_{1}$$" style="text;html=1;whiteSpace=wrap;strokeColor=none;fillColor=none;align=center;verticalAlign=middle;rounded=0;" vertex="1" parent="1">
          <mxGeometry x="330" y="390" width="60" height="30" as="geometry" />
        </mxCell>
        <mxCell id="01qJtoSz058EetLQ0UW7-9" value="$$r_{2}$$" style="text;html=1;whiteSpace=wrap;strokeColor=none;fillColor=none;align=center;verticalAlign=middle;rounded=0;" vertex="1" parent="1">
          <mxGeometry x="490" y="292" width="60" height="30" as="geometry" />
        </mxCell>
        <mxCell id="01qJtoSz058EetLQ0UW7-10" value="$$r_{3}$$" style="text;html=1;whiteSpace=wrap;strokeColor=none;fillColor=none;align=center;verticalAlign=middle;rounded=0;" vertex="1" parent="1">
          <mxGeometry x="540" y="390" width="60" height="30" as="geometry" />
        </mxCell>
        <mxCell id="01qJtoSz058EetLQ0UW7-11" value="$$h(r)$$" style="text;html=1;whiteSpace=wrap;strokeColor=none;fillColor=none;align=center;verticalAlign=middle;rounded=0;" vertex="1" parent="1">
          <mxGeometry x="403" y="330" width="60" height="30" as="geometry" />
        </mxCell>
        <mxCell id="01qJtoSz058EetLQ0UW7-12" value="$$g(r)$$" style="text;html=1;whiteSpace=wrap;strokeColor=none;fillColor=none;align=center;verticalAlign=middle;rounded=0;" vertex="1" parent="1">
          <mxGeometry x="550" y="340" width="60" height="30" as="geometry" />
        </mxCell>
        <mxCell id="01qJtoSz058EetLQ0UW7-13" value="$$\frac{\theta}{2}$$" style="text;html=1;whiteSpace=wrap;strokeColor=none;fillColor=none;align=center;verticalAlign=middle;rounded=0;" vertex="1" parent="1">
          <mxGeometry x="399" y="357" width="60" height="50" as="geometry" />
        </mxCell>
        <mxCell id="01qJtoSz058EetLQ0UW7-14" value="$$r$$" style="text;html=1;whiteSpace=wrap;strokeColor=none;fillColor=none;align=center;verticalAlign=middle;rounded=0;" vertex="1" parent="1">
          <mxGeometry x="620" y="384.5" width="60" height="30" as="geometry" />
        </mxCell>
      </root>
    </mxGraphModel>
  </diagram>
</mxfile>
